<svg width="122" height="120" viewBox="0 0 122 120" fill="none" xmlns="http://www.w3.org/2000/svg">
<path fill-rule="evenodd" clip-rule="evenodd" d="M103.136 62.5748C103.136 92.5012 81.3152 116.761 54.398 116.761C27.4809 116.761 5.66017 92.5012 5.66017 62.5748C5.66017 32.6483 27.4809 8.38811 54.398 8.38811C81.3152 8.38811 103.136 32.6483 103.136 62.5748ZM110.854 60C110.854 93.1371 87.1646 120 57.9417 120C28.7189 120 5.02911 93.1371 5.02911 60C5.02911 26.8629 28.7189 0 57.9417 0C87.1646 0 110.854 26.8629 110.854 60ZM66.1796 61.7318C65.175 60.238 64.5051 58.3122 64.1822 55.9427C63.8382 53.4196 63.0495 51.7821 62.0188 50.7792C61.0044 49.7922 59.6417 49.3093 57.902 49.3196C54.3342 49.3407 49.4702 51.4389 43.975 54.9945C33.0565 62.059 20.3301 74.4168 11.8444 84.9401C7.59129 90.2145 4.47346 94.9432 3.15649 98.2619C2.47948 99.968 2.37815 101.062 2.57318 101.639C2.65281 101.874 2.78051 102.022 2.98684 102.129C3.22235 102.251 3.62376 102.347 4.27625 102.315C5.59605 102.25 7.61361 101.676 10.4795 100.375C13.3222 99.0855 16.9174 97.1196 21.3654 94.3549C30.2602 88.8263 42.4998 80.145 58.8463 67.4043C61.3836 65.4267 63.8271 63.5369 66.1796 61.7318ZM67.7713 60.5127C67.015 59.3464 66.4493 57.7671 66.1638 55.6726C65.7835 52.8824 64.8714 50.7644 63.4135 49.3458C61.9394 47.9114 60.0258 47.307 57.8902 47.3196C53.7075 47.3443 48.4251 49.733 42.8885 53.3153C31.7436 60.5264 18.865 73.0476 10.2875 83.6847C6.00904 88.9905 2.73076 93.9124 1.2975 97.5242C0.599391 99.2835 0.237082 100.975 0.678683 102.28C0.917366 102.985 1.38305 103.552 2.06877 103.906C2.72531 104.245 3.51463 104.355 4.37512 104.313C6.0813 104.228 8.3788 103.525 11.3059 102.197C14.2561 100.858 17.9317 98.8439 22.4212 96.0535C31.4014 90.4718 43.7035 81.7425 60.0758 68.9817C62.6387 66.9842 65.1052 65.0768 67.4782 63.2563C68.6843 64.3712 70.1467 65.044 71.7784 65.3437C75.6697 66.0584 80.5432 64.6588 85.5645 62.2312C95.668 57.3466 107.138 47.9157 114.293 40.3767C116.087 38.4867 117.623 36.7019 118.806 35.1235C119.976 33.5633 120.849 32.1414 121.253 30.9861C121.454 30.4149 121.579 29.8016 121.48 29.2257C121.369 28.5781 120.984 28.0463 120.349 27.7667C119.789 27.5197 119.126 27.509 118.459 27.6022C117.772 27.6981 116.964 27.9218 116.036 28.2632C112.351 29.6196 106.213 33.054 96.961 39.2882C89.45 44.349 79.8452 51.2834 67.7713 60.5127ZM69.0978 62.0162C69.9507 62.7181 70.9676 63.1613 72.1397 63.3766C75.3742 63.9707 79.7545 62.8186 84.694 60.4306C94.512 55.684 105.792 46.4286 112.843 38.9998C114.601 37.1479 116.082 35.4232 117.206 33.9241C118.343 32.4067 119.065 31.1832 119.366 30.3246C119.507 29.9214 119.523 29.6895 119.512 29.5855C119.419 29.5563 119.188 29.5197 118.735 29.5829C118.241 29.652 117.58 29.826 116.727 30.1401C113.289 31.4055 107.326 34.716 98.0785 40.9468C90.6325 45.9638 81.0975 52.8461 69.0978 62.0162Z" fill="#01161E"/>
</svg>
