<svg width="1236" height="1126" viewBox="0 0 1236 1126" fill="none" xmlns="http://www.w3.org/2000/svg">
<path fill-rule="evenodd" clip-rule="evenodd" d="M1052 587C1052 867.561 827.247 1095 550 1095C272.753 1095 47.9999 867.561 47.9999 587C47.9999 306.44 272.753 79.0002 550 79.0002C827.247 79.0002 1052 306.44 1052 587ZM1131.5 562.862C1131.5 873.522 887.495 1125.36 586.5 1125.36C285.505 1125.36 41.5 873.522 41.5 562.862C41.5 252.202 285.505 0.361694 586.5 0.361694C887.495 0.361694 1131.5 252.202 1131.5 562.862ZM678.302 579.961C667.141 566.286 659.567 547.869 656.037 524.299C652.422 500.159 644.04 483.784 632.362 473.441C620.707 463.119 605.147 458.255 586.057 458.358C547.547 458.565 496.27 478.989 439.585 512.372C326.52 578.958 195.047 695.2 107.422 794.106C63.5433 843.635 31.0532 888.382 17.2215 920.108C13.7811 927.999 11.5716 934.916 10.5887 940.78C9.60082 946.673 9.90514 951.182 11.1338 954.487C12.303 957.632 14.4172 960.004 17.8644 961.626C21.4632 963.318 26.7012 964.265 34.0296 963.935C48.7309 963.273 70.3063 957.556 99.9859 945.297C129.563 933.081 166.813 914.531 212.739 888.549C304.585 836.589 430.82 755.085 599.256 635.593C626.657 616.154 652.995 597.621 678.302 579.961ZM686.532 574.223C676.523 562.222 669.317 545.454 665.927 522.818C662.082 497.145 652.945 478.313 638.992 465.955C625.014 453.576 606.828 448.246 586.003 448.358C544.682 448.58 491.451 470.221 434.51 503.755C320.321 571.003 188.063 688.003 99.9369 787.475C55.9404 837.136 22.5504 882.863 8.0548 916.111C4.41331 924.464 1.88805 932.196 0.726289 939.127C-0.430533 946.027 -0.289421 952.457 1.76053 957.971C3.86998 963.646 7.86769 967.975 13.6086 970.675C19.1979 973.303 26.2243 974.297 34.4797 973.925C50.946 973.183 73.8157 966.925 103.803 954.54C133.893 942.112 171.533 923.35 217.663 897.253C309.929 845.055 436.474 763.334 605.042 643.749C632.839 624.03 659.537 605.245 685.171 587.362C697.413 598.946 712.689 605.767 730.054 608.67C768.247 615.055 817.033 602.583 868.545 579.915C971.83 534.466 1089.46 446.479 1162.91 376.048C1181.3 358.418 1196.99 341.821 1209.02 327.2C1220.98 312.679 1229.62 299.771 1233.56 289.552C1235.51 284.479 1236.54 279.465 1235.71 275.01C1234.79 270.133 1231.74 266.511 1227 264.612C1222.63 262.857 1217.04 262.64 1210.62 263.457C1204.1 264.286 1196.19 266.255 1186.84 269.386C1149.57 281.872 1086.83 313.76 991.539 372.201C913.335 420.162 813.006 486.132 686.532 574.223ZM693.577 581.503C703.914 590.688 716.737 596.305 731.703 598.807C766.906 604.692 813.433 593.241 864.517 570.762C966.424 525.92 1083.1 438.722 1155.99 368.83C1174.19 351.38 1189.59 335.075 1201.3 320.844C1213.1 306.514 1220.89 294.621 1224.22 285.959C1225.91 281.591 1226.22 278.646 1225.88 276.856C1225.62 275.487 1224.99 274.577 1223.28 273.893C1221.22 273.065 1217.62 272.647 1211.88 273.377C1206.24 274.094 1199.01 275.855 1190.02 278.868C1153.92 290.961 1092.02 322.308 996.767 380.725C919.047 428.389 819.316 493.952 693.577 581.503Z" fill="black"/>
</svg>
